<?xml version="1.0" encoding="utf-8"?><svg xmlns="http://www.w3.org/2000/svg" xmlns:xlink="http://www.w3.org/1999/xlink"><symbol viewBox="0 0 32 16" id="burger" xmlns="http://www.w3.org/2000/svg"><path d="M1 1h30M1 8h30M1 15h30"/></symbol><symbol viewBox="0 0 20 13" id="check" xmlns="http://www.w3.org/2000/svg"><path d="M18.781 1.032L6.97 11.97 1.062 6.501"/></symbol><symbol viewBox="0 0 26 33" id="location" xmlns="http://www.w3.org/2000/svg"><path d="M13 17.692c2.651 0 4.8-2.135 4.8-4.769 0-2.634-2.149-4.77-4.8-4.77s-4.8 2.136-4.8 4.77c0 2.634 2.149 4.77 4.8 4.77z"/><path d="M25 12.923C25 23.653 13 32 13 32S1 23.654 1 12.923c0-3.162 1.264-6.195 3.515-8.43A12.04 12.04 0 0113 1a12.04 12.04 0 018.485 3.492A11.885 11.885 0 0125 12.923z"/></symbol><symbol viewBox="0 0 233 34" id="logo" xmlns="http://www.w3.org/2000/svg"><path fill-rule="evenodd" clip-rule="evenodd" d="M0 0h1.592l6.466 9.642c-.614.567-3.477 3.225-5.116 8.99C1.455 23.862 1.682 32.419 1.693 34H0V0zm10.923 13.912L24.396 34H5.977c.455-6.048-.052-16.281 4.946-20.088zM7.2 0h16.7c.005 5.371-.28 7.928-.984 9.883-1.567 4.35-3.7 6.267-4.498 6.919L7.199 0zm20.793 0h2.341v34h-.431l-8.681-13.001c5.265-4.986 7.216-10.558 6.77-20.999z"/><path d="M36.988 28.19a249.36 249.36 0 003.7-7.804l3.989-8.665a191.996 191.996 0 003.094-6.944c1.32.023 2.245.035 2.794.035.962 0 1.898-.012 2.82-.035l2.167 7.014 4.719 14.51.652 1.89-2.272-.035c-.527 0-1.407.011-2.649.035-.243-1.019-.626-2.387-1.148-4.12a148.998 148.998 0 00-1.33-4.2h-7.973a264.37 264.37 0 00-3.45 8.32l-2.48-.035c-.47 0-1.344.011-2.633.035zm9.908-11.9h5.806l-2.386-7.915-1.226 2.878-2.194 5.038zm16.106 11.9c.295-3.44.533-7.278.71-11.502.175-4.223.279-8.196.31-11.911 1.034.023 1.893.035 2.581.035.466 0 1.211-.012 2.236-.035-.13 2.06-.249 4.4-.362 7.026l-.3 6.875c-.089 1.965-.156 3.92-.192 5.862l2.607.035c2.443 0 4.052-.012 4.817-.03a47.012 47.012 0 002.277-.093c-.093 1.13-.176 2.37-.248 3.738a793.072 793.072 0 00-6.814-.034l-4.776.017-2.846.018zm16.769 0l.445-6.57.316-7.6.201-6.909V4.777c2.494.023 5.097.035 7.802.035l2.908-.018 4.377-.017-.18 3.703-1.44-.088a40.56 40.56 0 00-1.634-.052 124.77 124.77 0 00-2.137-.018c-1.573 0-2.592.006-3.052.012-.456.006-1.15.023-2.08.058l-.238 6.073c1.381.035 2.778.053 4.18.053.968 0 2.603-.035 4.905-.106a104.9 104.9 0 00-.212 3.721 695.295 695.295 0 00-4.636-.052c-1.19 0-2.675.035-4.455.105l-.264 6.459 1.666.018c.487 0 1.6-.012 3.343-.035l3.29-.07 2.2-.124a97.783 97.783 0 00-.213 3.756 809.076 809.076 0 00-7.109-.034l-4.982.017-3.001.018zm19.024 0c.181-2.24.3-4.042.362-5.405.11-2.27.228-5.535.347-9.777.088-3.13.135-5.347.135-6.634V4.777c2.902.023 5.443.035 7.616.035l4.247-.018 2.536-.017c-.109 1.702-.171 2.937-.182 3.703l-2.173-.088-.879-.017h-3.493l-3.145.017-.171 6.179 2.582.052c1.961 0 3.223-.006 3.782-.018l2.064-.034c-.072 1.334-.119 2.55-.14 3.65a167.01 167.01 0 00-4.216-.07c-1.32 0-2.747.023-4.279.07l-.16 7.56-.016 1.538v.872l-2.313-.035c-.118 0-.952.011-2.504.035zm15.889-7.336c.093-1.112.145-2.27.166-3.475 1.459.046 2.763.07 3.901.07 1.148 0 2.452-.024 3.911-.07a58.854 58.854 0 00-.165 3.475c-1.459-.047-2.774-.07-3.927-.07-1.128 0-2.427.023-3.886.07zm21.767-6.038a239.252 239.252 0 008.154 0c-.264 3.838-.451 8.097-.564 12.778-1.677.374-3.188.637-4.543.79-1.35.152-2.504.228-3.451.228-1.78 0-3.425-.21-4.946-.632-1.516-.427-2.804-1.112-3.855-2.06-1.05-.947-1.847-2.2-2.395-3.744-.554-1.55-.828-3.188-.828-4.914 0-1.475.207-2.896.616-4.265a12.96 12.96 0 011.816-3.774 11.073 11.073 0 012.907-2.855 10.534 10.534 0 013.622-1.556 18.843 18.843 0 014.056-.421c1.961 0 4.212.292 6.757.877a70.93 70.93 0 00.156 4.072c-2.38-.889-4.538-1.334-6.463-1.334-1.241 0-2.416.2-3.523.597a7.51 7.51 0 00-2.861 1.86c-.802.843-1.413 1.878-1.832 3.119a11.927 11.927 0 00-.626 3.843c0 1.475.238 2.791.72 3.95.476 1.158 1.283 2.06 2.41 2.697 1.128.637 2.427.96 3.886.96.538 0 1.164-.06 1.894-.17a13.225 13.225 0 002.266-.568l.243-6.003-1.19-.017c-.673 0-1.526.017-2.561.052.093-1.527.135-2.696.135-3.51zm11.698 13.374c.3-3.405.527-7.324.677-11.747.15-4.43.228-8.314.228-11.666a165.5 165.5 0 003.047.035c.88 0 1.739-.018 2.587-.053a64.677 64.677 0 012.675-.053c1.175 0 2.22.077 3.146.223a5.548 5.548 0 012.468 1.03 5.084 5.084 0 011.599 1.954c.346.766.522 1.661.522 2.68 0 .637-.067 1.245-.196 1.825a7.218 7.218 0 01-.585 1.626 5.886 5.886 0 01-.921 1.34 5.43 5.43 0 01-1.056.907 5.757 5.757 0 01-1.19.573c-.45.164-1.045.357-1.795.585l1.03 2.264c.336.72.967 2.013 1.899 3.879l1.526 3.036c.083.158.326.68.729 1.563a166.499 166.499 0 00-2.452-.035c-.491 0-1.35.011-2.576.035l-1.667-4.552a205.4 205.4 0 00-1.05-2.463l-1.816-4.16a36.764 36.764 0 01-.75-1.743 9.11 9.11 0 001.842.21c.864 0 1.655-.158 2.369-.48a3.5 3.5 0 001.646-1.492 4.358 4.358 0 00.574-2.193 3.6 3.6 0 00-.248-1.346 2.45 2.45 0 00-.844-1.047 3.078 3.078 0 00-1.412-.55 10.99 10.99 0 00-1.635-.123c-.305 0-.719.006-1.247.018-.523.011-1.169.017-1.94.017l-.269 7.044-.285 12.86-2.343-.035c-.378 0-1.139.011-2.287.035zm31.369-23.8c1.5 0 2.944.235 4.33.703a9.59 9.59 0 013.679 2.287 10.386 10.386 0 012.421 3.698c.543 1.404.818 3.042.818 4.92 0 1.755-.259 3.44-.771 5.043-.518 1.61-1.314 2.99-2.396 4.148-1.076 1.164-2.39 2.024-3.942 2.58a14.205 14.205 0 01-4.884.843c-1.615 0-3.167-.258-4.657-.773a9.735 9.735 0 01-3.844-2.416 9.525 9.525 0 01-2.308-3.78c-.465-1.42-.698-2.96-.698-4.621 0-1.814.29-3.551.869-5.207.58-1.662 1.433-3.03 2.561-4.119a11.211 11.211 0 013.953-2.463c1.506-.561 3.13-.842 4.869-.842zm-.243 3.651c-1.527 0-2.851.398-3.979 1.194-1.128.796-1.982 1.884-2.551 3.258-.569 1.381-.854 2.867-.854 4.47 0 1.487.275 2.855.823 4.113.554 1.252 1.397 2.206 2.535 2.861a7.22 7.22 0 003.689.989 7.13 7.13 0 002.861-.585 6.204 6.204 0 002.355-1.773c.657-.796 1.153-1.755 1.489-2.878.332-1.118.497-2.288.497-3.499 0-1.13-.15-2.217-.445-3.259-.3-1.041-.76-1.936-1.386-2.685a5.759 5.759 0 00-2.261-1.667 7.319 7.319 0 00-2.773-.539zm15.195-3.264c1.174.023 1.966.035 2.385.035.512 0 1.283-.012 2.308-.035l-.704 13.848c-.01.164-.016.333-.016.515 0 1.544.197 2.709.585 3.487.388.778.963 1.34 1.713 1.697.755.356 1.619.532 2.587.532.621 0 1.205-.082 1.764-.24a5 5 0 001.242-.568c.305-.204.574-.444.807-.72.274-.333.502-.713.683-1.152.191-.421.331-.9.424-1.439.13-.813.253-2.223.362-4.242l.316-5.967c.067-1.744.124-3.657.16-5.751 1.144.023 1.992.035 2.546.035l2.214-.035-.471 8.272-.305 6.57c-.088 1.533-.233 2.68-.424 3.435a7.527 7.527 0 01-.683 1.75 5.98 5.98 0 01-1.014 1.286 7.524 7.524 0 01-1.775 1.27 9.554 9.554 0 01-2.406.877c-1.174.246-2.38.375-3.621.375-1.278 0-2.468-.135-3.581-.392a9.315 9.315 0 01-2.612-1.065c-.797-.48-1.423-1.018-1.889-1.615-.372-.48-.673-1.082-.895-1.802-.254-.801-.378-1.69-.378-2.68 0-.339.011-.783.031-1.327.016-.545.052-1.24.104-2.1l.129-2.423c.052-.755.104-1.86.161-3.329l.149-3.72c.037-1.019.073-2.148.104-3.382zm22.543 23.413l.274-4.066.377-9.004.187-6.535c.01-.596.015-1.193.015-1.801 0-.445-.005-1.118-.015-2.007 1.293.023 2.343.035 3.151.035.646 0 1.547-.018 2.695-.053a95.403 95.403 0 012.742-.053c1.392 0 2.422.118 3.079.346a4.855 4.855 0 011.831 1.181 5.362 5.362 0 011.195 1.937 7.94 7.94 0 01.456 2.726c0 1.469-.326 2.809-.983 4.014-.652 1.205-1.558 2.106-2.711 2.703-1.159.59-2.437.89-3.85.89-.688 0-1.423-.083-2.204-.247a41.095 41.095 0 00-.745-3.334 8.51 8.51 0 001.863.21c.838 0 1.562-.14 2.178-.427.616-.287 1.107-.749 1.469-1.393.362-.643.543-1.368.543-2.176 0-.474-.077-.912-.227-1.31-.15-.398-.367-.72-.657-.96-.285-.24-.6-.398-.947-.485-.352-.082-.843-.129-1.49-.129-.564 0-1.133.012-1.702.035-.575.024-1.082.035-1.527.035a260.75 260.75 0 00-.269 6.43l-.181 6.546a236.058 236.058 0 00-.088 5.108c0 .416.005 1.006.016 1.785l-2.199-.035c-.284 0-1.045.011-2.276.035z"/></symbol><symbol viewBox="0 0 39 44" id="logo-mobile" xmlns="http://www.w3.org/2000/svg"><path fill-rule="evenodd" clip-rule="evenodd" d="M0 0h2.046l8.315 12.478c-.79.734-4.47 4.173-6.578 11.633C1.87 30.88 2.162 41.954 2.177 44H0V0zm14.043 18.004L31.365 44H7.685c.584-7.827-.067-21.07 6.358-25.996zM9.257 0h21.472c.007 6.95-.36 10.26-1.265 12.79-2.014 5.63-4.758 8.11-5.783 8.954L9.257 0zM35.99 0H39v44h-.555l-11.16-16.825C34.054 20.723 36.561 13.511 35.99 0z"/></symbol><symbol viewBox="0 0 18 18" id="mail" xmlns="http://www.w3.org/2000/svg"><path d="M2.25 3.938h13.5V13.5a.562.562 0 01-.563.563H2.813a.563.563 0 01-.563-.563V3.937z"/><path d="M15.75 3.938L9 10.125 2.25 3.937"/></symbol><symbol viewBox="0 0 19 19" id="page" xmlns="http://www.w3.org/2000/svg"><path d="M17.227 4.227v12.74a.773.773 0 01-.216.538.726.726 0 01-.522.222H1.738a.727.727 0 01-.522-.222.772.772 0 01-.216-.538V1.76c0-.201.078-.395.216-.537A.727.727 0 011.738 1h11.801M4.688 7.653h8.851m-8.851 3.041h8.851"/></symbol><symbol viewBox="0 0 32 31" id="pencil" xmlns="http://www.w3.org/2000/svg"><path d="M12 26.156H6c-.265 0-.52-.102-.707-.283A.954.954 0 015 25.188v-5.412a.943.943 0 01.293-.685l15-14.53c.187-.183.442-.285.707-.285.265 0 .52.102.707.284l5.586 5.411a.954.954 0 01.293.685.954.954 0 01-.293.685L12 26.156zM17 7.75l7 6.781"/><path d="M27 26.156H12l-6.937-6.72"/></symbol><symbol viewBox="0 0 14 14" id="phone" xmlns="http://www.w3.org/2000/svg"><path d="M13 9.984v1.807a1.202 1.202 0 01-.82 1.146 1.21 1.21 0 01-.496.058 11.955 11.955 0 01-5.207-1.848 11.754 11.754 0 01-3.62-3.613 11.902 11.902 0 01-1.852-5.221A1.202 1.202 0 012.205 1h1.81a1.208 1.208 0 011.207 1.036 7.72 7.72 0 00.423 1.692 1.202 1.202 0 01-.272 1.27l-.766.765a9.644 9.644 0 003.62 3.613l.766-.765a1.207 1.207 0 011.273-.27 7.76 7.76 0 001.696.42A1.208 1.208 0 0113 9.985z"/></symbol><symbol viewBox="0 0 32 29" id="plus" xmlns="http://www.w3.org/2000/svg"><path d="M16.957 8.364H31M23.979 1v14.727m-4.256 1.562v9.818a.92.92 0 01-.249.632.831.831 0 01-.602.261H1.852a.831.831 0 01-.603-.261.915.915 0 01-.249-.632V9.257c0-.238.09-.465.25-.632a.831.831 0 01.601-.261h9.362m-5.958 7.81h10.213m-10.213 3.57h10.213"/></symbol><symbol viewBox="0 0 50 53" id="timer" xmlns="http://www.w3.org/2000/svg"><path d="M24.293 27.293a1 1 0 001.414 1.414l-1.414-1.414zm9.148-6.32a1 1 0 00-1.414-1.414l1.414 1.414zM20.312 3.563a1 1 0 100 2v-2zm9.375 2a1 1 0 100-2v2zM41.188 28c0 8.94-7.247 16.188-16.187 16.188v2c10.045 0 18.188-8.143 18.188-18.188h-2zM25 44.188C16.06 44.188 8.812 36.94 8.812 28h-2c0 10.045 8.143 18.188 18.188 18.188v-2zM8.812 28c0-8.94 7.248-16.188 16.188-16.188v-2C14.955 9.813 6.812 17.956 6.812 28h2zM25 11.812c8.94 0 16.188 7.248 16.188 16.188h2c0-10.045-8.143-18.188-18.188-18.188v2zm.707 16.895l7.734-7.734-1.414-1.414-7.734 7.734 1.414 1.414zM20.312 5.562h9.375v-2h-9.375v2z" opacity=".06"/><path d="M24.293 24.293a1 1 0 001.414 1.414l-1.414-1.414zm9.148-6.32a1 1 0 00-1.414-1.414l1.414 1.414zM20.312.563a1 1 0 100 2v-2zm9.375 2a1 1 0 100-2v2zM41.188 25c0 8.94-7.247 16.188-16.187 16.188v2c10.045 0 18.188-8.143 18.188-18.188h-2zM25 41.188C16.06 41.188 8.812 33.94 8.812 25h-2c0 10.045 8.143 18.188 18.188 18.188v-2zM8.812 25C8.813 16.06 16.06 8.812 25 8.812v-2C14.955 6.813 6.812 14.956 6.812 25h2zM25 8.812c8.94 0 16.188 7.248 16.188 16.188h2c0-10.045-8.143-18.188-18.188-18.188v2zm.707 16.895l7.734-7.734-1.414-1.414-7.734 7.734 1.414 1.414zM20.312 2.562h9.375v-2h-9.375v2z"/></symbol></svg>