<svg width="50" height="53" viewBox="0 0 50 53" fill="none" xmlns="http://www.w3.org/2000/svg">
<g opacity="0.06">
<path d="M25 17.0625V20.1875M25 35.8125V38.9375M20.3125 35.8125H27.3438C28.3798 35.8125 29.3733 35.401 30.1059 34.6684C30.8385 33.9358 31.25 32.9423 31.25 31.9062C31.25 30.8702 30.8385 29.8767 30.1059 29.1441C29.3733 28.4115 28.3798 28 27.3438 28H22.6562C21.6202 28 20.6267 27.5885 19.8941 26.8559C19.1616 26.1233 18.75 25.1298 18.75 24.0938C18.75 23.0577 19.1616 22.0642 19.8941 21.3316C20.6267 20.5991 21.6202 20.1875 22.6562 20.1875H29.6875M43.75 28C43.75 38.3553 35.3553 46.75 25 46.75C14.6447 46.75 6.25 38.3553 6.25 28C6.25 17.6447 14.6447 9.25 25 9.25C35.3553 9.25 43.75 17.6447 43.75 28Z" stroke="#001E60" stroke-width="2" stroke-linecap="round" stroke-linejoin="round"/>
</g>
<path d="M25 14.0625V17.1875M25 32.8125V35.9375M20.3125 32.8125H27.3438C28.3798 32.8125 29.3733 32.401 30.1059 31.6684C30.8385 30.9358 31.25 29.9423 31.25 28.9062C31.25 27.8702 30.8385 26.8767 30.1059 26.1441C29.3733 25.4115 28.3798 25 27.3438 25H22.6562C21.6202 25 20.6267 24.5885 19.8941 23.8559C19.1616 23.1233 18.75 22.1298 18.75 21.0938C18.75 20.0577 19.1616 19.0642 19.8941 18.3316C20.6267 17.5991 21.6202 17.1875 22.6562 17.1875H29.6875M43.75 25C43.75 35.3553 35.3553 43.75 25 43.75C14.6447 43.75 6.25 35.3553 6.25 25C6.25 14.6447 14.6447 6.25 25 6.25C35.3553 6.25 43.75 14.6447 43.75 25Z" stroke="#001E60" stroke-width="2" stroke-linecap="round" stroke-linejoin="round"/>
</svg>
