<svg width="28" height="27" viewBox="0 0 28 27" fill="none" xmlns="http://www.w3.org/2000/svg">
<path d="M13.6174 25.0586C20.5052 25.0586 26.0889 19.686 26.0889 13.0586C26.0889 6.43118 20.5052 1.05859 13.6174 1.05859C6.72964 1.05859 1.146 6.43118 1.146 13.0586C1.146 19.686 6.72964 25.0586 13.6174 25.0586Z" stroke="#001E60" stroke-width="2" stroke-linecap="round" stroke-linejoin="round"/>
<path d="M14.4546 15.6348H12.1108L11.7788 5.78125H14.7866L14.4546 15.6348ZM13.2827 17.1777C13.758 17.1777 14.1388 17.3177 14.4253 17.5977C14.7183 17.8776 14.8647 18.2357 14.8647 18.6719C14.8647 19.1016 14.7183 19.4564 14.4253 19.7363C14.1388 20.0163 13.758 20.1562 13.2827 20.1562C12.814 20.1562 12.4331 20.0163 12.1401 19.7363C11.8537 19.4564 11.7104 19.1016 11.7104 18.6719C11.7104 18.2422 11.8537 17.8874 12.1401 17.6074C12.4331 17.321 12.814 17.1777 13.2827 17.1777Z" fill="#001E60"/>
</svg>
