<svg width="50" height="53" viewBox="0 0 50 53" fill="none" xmlns="http://www.w3.org/2000/svg">
<g opacity="0.06">
<path d="M24.2929 27.2929C23.9024 27.6834 23.9024 28.3166 24.2929 28.7071C24.6834 29.0977 25.3166 29.0977 25.7071 28.7071L24.2929 27.2929ZM33.4411 20.9732C33.8316 20.5826 33.8316 19.9495 33.4411 19.5589C33.0506 19.1684 32.4174 19.1684 32.0269 19.5589L33.4411 20.9732ZM20.3125 3.5625C19.7602 3.5625 19.3125 4.01022 19.3125 4.5625C19.3125 5.11478 19.7602 5.5625 20.3125 5.5625V3.5625ZM29.6875 5.5625C30.2398 5.5625 30.6875 5.11478 30.6875 4.5625C30.6875 4.01022 30.2398 3.5625 29.6875 3.5625V5.5625ZM41.1875 28C41.1875 36.9401 33.9401 44.1875 25 44.1875V46.1875C35.0447 46.1875 43.1875 38.0447 43.1875 28H41.1875ZM25 44.1875C16.0599 44.1875 8.8125 36.9401 8.8125 28H6.8125C6.8125 38.0447 14.9553 46.1875 25 46.1875V44.1875ZM8.8125 28C8.8125 19.0599 16.0599 11.8125 25 11.8125V9.8125C14.9553 9.8125 6.8125 17.9553 6.8125 28H8.8125ZM25 11.8125C33.9401 11.8125 41.1875 19.0599 41.1875 28H43.1875C43.1875 17.9553 35.0447 9.8125 25 9.8125V11.8125ZM25.7071 28.7071L33.4411 20.9732L32.0269 19.5589L24.2929 27.2929L25.7071 28.7071ZM20.3125 5.5625H29.6875V3.5625H20.3125V5.5625Z" fill="#001E60"/>
</g>
<path d="M24.2929 24.2929C23.9024 24.6834 23.9024 25.3166 24.2929 25.7071C24.6834 26.0977 25.3166 26.0977 25.7071 25.7071L24.2929 24.2929ZM33.4411 17.9732C33.8316 17.5826 33.8316 16.9495 33.4411 16.5589C33.0506 16.1684 32.4174 16.1684 32.0269 16.5589L33.4411 17.9732ZM20.3125 0.5625C19.7602 0.5625 19.3125 1.01022 19.3125 1.5625C19.3125 2.11478 19.7602 2.5625 20.3125 2.5625V0.5625ZM29.6875 2.5625C30.2398 2.5625 30.6875 2.11478 30.6875 1.5625C30.6875 1.01022 30.2398 0.5625 29.6875 0.5625V2.5625ZM41.1875 25C41.1875 33.9401 33.9401 41.1875 25 41.1875V43.1875C35.0447 43.1875 43.1875 35.0447 43.1875 25H41.1875ZM25 41.1875C16.0599 41.1875 8.8125 33.9401 8.8125 25H6.8125C6.8125 35.0447 14.9553 43.1875 25 43.1875V41.1875ZM8.8125 25C8.8125 16.0599 16.0599 8.8125 25 8.8125V6.8125C14.9553 6.8125 6.8125 14.9553 6.8125 25H8.8125ZM25 8.8125C33.9401 8.8125 41.1875 16.0599 41.1875 25H43.1875C43.1875 14.9553 35.0447 6.8125 25 6.8125V8.8125ZM25.7071 25.7071L33.4411 17.9732L32.0269 16.5589L24.2929 24.2929L25.7071 25.7071ZM20.3125 2.5625H29.6875V0.5625H20.3125V2.5625Z" fill="#001E60"/>
</svg>
